<svg width="70" height="70" viewBox="0 0 70 70" fill="none" xmlns="http://www.w3.org/2000/svg">
<rect width="70" height="70" rx="6" fill="#8257E6"/>
<path d="M39.3035 31.761C37.9123 31.761 36.7893 30.638 36.7893 29.2468V20.8663C36.7893 19.4752 37.9123 18.3522 39.3035 18.3522C40.6946 18.3522 41.8176 19.4752 41.8176 20.8663V29.2468C41.8176 30.638 40.6946 31.761 39.3035 31.761Z" stroke="white" stroke-width="2" stroke-linecap="round" stroke-linejoin="round"/>
<path d="M49.3601 31.761H46.8459V29.2469C46.8459 27.8557 47.9689 26.7327 49.3601 26.7327C50.7513 26.7327 51.8743 27.8557 51.8743 29.2469C51.8743 30.638 50.7513 31.761 49.3601 31.761Z" stroke="white" stroke-width="2" stroke-linecap="round" stroke-linejoin="round"/>
<path d="M30.923 38.4655C32.3141 38.4655 33.4371 39.5884 33.4371 40.9796V49.3601C33.4371 50.7513 32.3141 51.8743 30.923 51.8743C29.5318 51.8743 28.4088 50.7513 28.4088 49.3601V40.9796C28.4088 39.5884 29.5318 38.4655 30.923 38.4655Z" stroke="white" stroke-width="2" stroke-linecap="round" stroke-linejoin="round"/>
<path d="M20.8663 38.4655H23.3805V40.9796C23.3805 42.3708 22.2575 43.4938 20.8663 43.4938C19.4752 43.4938 18.3522 42.3708 18.3522 40.9796C18.3522 39.5884 19.4752 38.4655 20.8663 38.4655Z" stroke="white" stroke-width="2" stroke-linecap="round" stroke-linejoin="round"/>
<path d="M38.4655 39.3035C38.4655 37.9123 39.5884 36.7893 40.9796 36.7893H49.3601C50.7513 36.7893 51.8743 37.9123 51.8743 39.3035C51.8743 40.6946 50.7513 41.8176 49.3601 41.8176H40.9796C39.5884 41.8176 38.4655 40.6946 38.4655 39.3035Z" stroke="white" stroke-width="2" stroke-linecap="round" stroke-linejoin="round"/>
<path d="M40.9796 46.8459H38.4655V49.3601C38.4655 50.7513 39.5884 51.8743 40.9796 51.8743C42.3708 51.8743 43.4938 50.7513 43.4938 49.3601C43.4938 47.9689 42.3708 46.8459 40.9796 46.8459Z" stroke="white" stroke-width="2" stroke-linecap="round" stroke-linejoin="round"/>
<path d="M31.761 30.923C31.761 29.5318 30.638 28.4088 29.2468 28.4088H20.8663C19.4752 28.4088 18.3522 29.5318 18.3522 30.923C18.3522 32.3141 19.4752 33.4371 20.8663 33.4371H29.2468C30.638 33.4371 31.761 32.3141 31.761 30.923Z" stroke="white" stroke-width="2" stroke-linecap="round" stroke-linejoin="round"/>
<path d="M29.2469 23.3805H31.761V20.8663C31.761 19.4752 30.638 18.3522 29.2469 18.3522C27.8557 18.3522 26.7327 19.4752 26.7327 20.8663C26.7327 22.2575 27.8557 23.3805 29.2469 23.3805Z" stroke="white" stroke-width="2" stroke-linecap="round" stroke-linejoin="round"/>
</svg>
